<svg width="22px" height="23px" viewBox="0 0 22 23" version="1.1" xmlns="http://www.w3.org/2000/svg" xmlns:xlink="http://www.w3.org/1999/xlink">
    <defs></defs>
    <rect id="Rectangle-path" opacity="0" x="0" y="0.125" width="22" height="22"></rect>
    <path d="M20.4419643,15.21875 L19.0859375,15.21875 L19.0859375,11.703125 L11.8537946,11.703125 L11.8537946,9.39285714 L17.8303571,9.39285714 C18.0513393,9.39285714 18.2321429,9.21205357 18.2321429,8.99107143 L18.2321429,2.36160714 C18.2321429,2.140625 18.0513393,1.95982143 17.8303571,1.95982143 L4.16964286,1.95982143 C3.94866071,1.95982143 3.76785714,2.140625 3.76785714,2.36160714 L3.76785714,8.99107143 C3.76785714,9.21205357 3.94866071,9.39285714 4.16964286,9.39285714 L10.1462054,9.39285714 L10.1462054,11.703125 L2.9140625,11.703125 L2.9140625,15.21875 L1.55803571,15.21875 C1.44754464,15.21875 1.35714286,15.3091518 1.35714286,15.4196429 L1.35714286,19.8392857 C1.35714286,19.9497768 1.44754464,20.0401786 1.55803571,20.0401786 L5.97767857,20.0401786 C6.08816964,20.0401786 6.17857143,19.9497768 6.17857143,19.8392857 L6.17857143,15.4196429 C6.17857143,15.3091518 6.08816964,15.21875 5.97767857,15.21875 L4.62165179,15.21875 L4.62165179,13.4107143 L10.1462054,13.4107143 L10.1462054,15.21875 L8.79017857,15.21875 C8.6796875,15.21875 8.58928571,15.3091518 8.58928571,15.4196429 L8.58928571,19.8392857 C8.58928571,19.9497768 8.6796875,20.0401786 8.79017857,20.0401786 L13.2098214,20.0401786 C13.3203125,20.0401786 13.4107143,19.9497768 13.4107143,19.8392857 L13.4107143,15.4196429 C13.4107143,15.3091518 13.3203125,15.21875 13.2098214,15.21875 L11.8537946,15.21875 L11.8537946,13.4107143 L17.3783482,13.4107143 L17.3783482,15.21875 L16.0223214,15.21875 C15.9118304,15.21875 15.8214286,15.3091518 15.8214286,15.4196429 L15.8214286,19.8392857 C15.8214286,19.9497768 15.9118304,20.0401786 16.0223214,20.0401786 L20.4419643,20.0401786 C20.5524554,20.0401786 20.6428571,19.9497768 20.6428571,19.8392857 L20.6428571,15.4196429 C20.6428571,15.3091518 20.5524554,15.21875 20.4419643,15.21875 Z M4.57142857,18.3652344 C4.57142857,18.4029018 4.54129464,18.4330357 4.50362723,18.4330357 L3.02957589,18.4330357 C2.99190848,18.4330357 2.96177455,18.4029018 2.96177455,18.3652344 L2.96177455,16.891183 C2.96177455,16.8535156 2.99190848,16.8233817 3.02957589,16.8233817 L4.50362723,16.8233817 C4.54129464,16.8233817 4.57142857,16.8535156 4.57142857,16.891183 L4.57142857,18.3652344 Z M11.8035714,18.3652344 C11.8035714,18.4029018 11.7734375,18.4330357 11.7357701,18.4330357 L10.2617188,18.4330357 C10.2240513,18.4330357 10.1939174,18.4029018 10.1939174,18.3652344 L10.1939174,16.891183 C10.1939174,16.8535156 10.2240513,16.8233817 10.2617188,16.8233817 L11.7357701,16.8233817 C11.7734375,16.8233817 11.8035714,16.8535156 11.8035714,16.891183 L11.8035714,18.3652344 Z M5.375,7.78571429 L5.375,3.56696429 L16.625,3.56696429 L16.625,7.78571429 L5.375,7.78571429 Z M19.0357143,18.3652344 C19.0357143,18.4029018 19.0055804,18.4330357 18.9679129,18.4330357 L17.4938616,18.4330357 C17.4561942,18.4330357 17.4260603,18.4029018 17.4260603,18.3652344 L17.4260603,16.891183 C17.4260603,16.8535156 17.4561942,16.8233817 17.4938616,16.8233817 L18.9679129,16.8233817 C19.0055804,16.8233817 19.0357143,16.8535156 19.0357143,16.891183 L19.0357143,18.3652344 Z M7.18303571,5.67633929 C7.18303571,6.23108959 7.63274969,6.68080357 8.1875,6.68080357 C8.74225031,6.68080357 9.19196429,6.23108959 9.19196429,5.67633929 C9.19196429,5.12158898 8.74225031,4.671875 8.1875,4.671875 C7.63274969,4.671875 7.18303571,5.12158898 7.18303571,5.67633929 Z" id="Shape"></path>
</svg>