<svg width="22px" height="24px" viewBox="0 0 22 24" version="1.1" xmlns="http://www.w3.org/2000/svg" xmlns:xlink="http://www.w3.org/1999/xlink">
    <defs></defs>
    <rect id="Rectangle-path" opacity="0" x="0" y="0.625" width="22" height="22"></rect>
    <path d="M19.6132812,12 L18.3828125,12 C18.2861328,12 18.2070312,12.0791016 18.2070312,12.1757812 L18.2070312,19.2070312 L3.79296875,19.2070312 L3.79296875,4.79296875 L10.8242188,4.79296875 C10.9208984,4.79296875 11,4.71386719 11,4.6171875 L11,3.38671875 C11,3.29003906 10.9208984,3.2109375 10.8242188,3.2109375 L2.9140625,3.2109375 C2.52514648,3.2109375 2.2109375,3.52514648 2.2109375,3.9140625 L2.2109375,20.0859375 C2.2109375,20.4748535 2.52514648,20.7890625 2.9140625,20.7890625 L19.0859375,20.7890625 C19.4748535,20.7890625 19.7890625,20.4748535 19.7890625,20.0859375 L19.7890625,12.1757812 C19.7890625,12.0791016 19.7099609,12 19.6132812,12 Z" id="Shape" ></path>
    <path d="M7.57006836,12.5031738 L7.52832031,15.1157227 C7.52612305,15.3112793 7.68432617,15.4716797 7.87988281,15.4716797 L7.88867187,15.4716797 L10.4814453,15.407959 C10.5253906,15.4057617 10.5693359,15.3881836 10.6000977,15.3574219 L19.7385254,6.23876953 C19.8066406,6.1706543 19.8066406,6.05859375 19.7385254,5.99047852 L17.0073242,3.26147461 C16.972168,3.22631836 16.9282227,3.2109375 16.8820801,3.2109375 C16.8359375,3.2109375 16.7919922,3.22851562 16.7568359,3.26147461 L7.62060547,12.380127 C7.58984375,12.4130859 7.57006836,12.4570312 7.57006836,12.5031738 Z M8.96533203,13.0217285 L16.8820801,5.12255859 L17.8752441,6.11352539 L9.95410156,14.0170898 L8.94995117,14.0412598 L8.96533203,13.0217285 Z" id="Shape" ></path>
</svg>