<svg class="icon" viewBox="0 0 3214 1024" xmlns="http://www.w3.org/2000/svg" width="627.734" height="200"><defs><style/></defs><path d="M1230.421 447.061c-274.29 80.128-148.48 480.655 114.859 401.152 250.482-75.605 152.235-479.203-114.859-401.152zm216.292 524.345c-263.993 131.783-536.576-60.274-533.646-329.415 2.816-256.825 275.854-457.13 533.646-317.61l14.62-16.072c29.099-24.064 140.231-10.297 182.614-9.614l-.455 698.823-166.144 1.593c-24.32-7.907-18.376-14.307-30.635-27.676zM0 998.286l.284-926.89 208.84 1.08 1.308 375.439H611.84l.284-376.093 208.669-.995-1.195 930.958-207.36-4.978-2.105-375.836-400.697 2.332-1.28 377.828L0 998.286zm2757.404-216.974c-2.616 72.846-105.813 158.948-159.886 187.99-286.89 153.998-620.914-107.066-534.016-418.504 123.193-441.628 778.923-300.8 723.513 137.842l-560.327 1.508c18.972 86.414 77.028 155.306 165.689 170.638 121.884 21.049 160.227-55.382 216.064-105.415l148.992 25.941zm-515.527-212.65l366.877-.285c-50.062-176.47-316.103-175.645-366.877.284zm627.997 427.406c-2.958-120.377-12.516-420.58 19-513.736 44.061-130.389 181.448-256.682 291.983-244.878l27.42 174.222c-217.344 55.524-145.948 262.088-156.53 588.971l-181.873-4.551zm-1107.854 2.446l2.787-701.867 188.7.427-.91 704.284-190.577-2.844zM1857.764 9.67c58.567 0 106.04 48.157 106.04 107.577 0 59.449-47.473 107.605-106.04 107.605-58.596 0-106.041-48.185-106.041-107.605 0-59.449 47.473-107.577 106.04-107.577z" fill="#fff"/></svg>