<svg width="22px" height="24px" viewBox="0 0 22 24" version="1.1" xmlns="http://www.w3.org/2000/svg" xmlns:xlink="http://www.w3.org/1999/xlink">
    <defs></defs>
    <rect id="Rectangle-path" opacity="0" x="0" y="0.5" width="22" height="22"></rect>
    <path d="M19.3571429,5 L2.64285714,5 C2.28727679,5 2,5.284375 2,5.63636364 L2,18.3636364 C2,18.715625 2.28727679,19 2.64285714,19 L19.3571429,19 C19.7127232,19 20,18.715625 20,18.3636364 L20,5.63636364 C20,5.284375 19.7127232,5 19.3571429,5 Z M18.5535714,7.20340909 L18.5535714,17.5681818 L3.44642857,17.5681818 L3.44642857,7.20340909 L2.89196429,6.77585227 L3.68147321,5.77159091 L4.54129464,6.43380682 L17.4607143,6.43380682 L18.3205357,5.77159091 L19.1100446,6.77585227 L18.5535714,7.20340909 Z M17.4607143,6.43181818 L11,11.4034091 L4.53928571,6.43181818 L3.67946429,5.76960227 L2.88995536,6.77386364 L3.44441964,7.20142045 L10.3069196,12.4832386 C10.7127232,12.7954545 11.28125,12.7954545 11.6870536,12.4832386 L18.5535714,7.20340909 L19.1080357,6.77585227 L18.3185268,5.77159091 L17.4607143,6.43181818 Z" id="Shape" ></path>
</svg>