<svg width="22px" height="23px" viewBox="0 0 22 23" version="1.1" xmlns="http://www.w3.org/2000/svg" xmlns:xlink="http://www.w3.org/1999/xlink">
    <defs></defs>
    <rect id="Rectangle-path" opacity="0" x="0" y="0" width="22" height="22"></rect>
    <path d="M14.421742,15.0429189 C14.3878324,14.9954455 14.3335771,14.9683178 14.2748005,14.9683178 L13.2755984,14.9683178 C13.1286569,14.9683178 13.0427527,15.1356051 13.1286569,15.2554189 L14.797008,17.5635306 C14.8693484,17.6629987 15.0162899,17.6629987 15.0886303,17.5635306 L17.6702793,13.9917221 C17.7561835,13.8719082 17.6702793,13.704621 17.5233378,13.704621 L16.521875,13.704621 C16.4630984,13.704621 16.4088431,13.7317487 16.3749335,13.7792221 L14.9394282,15.7640625 L14.421742,15.0429189 Z M15.4005984,6.83228059 L15.4005984,5.7471742 C15.4005984,5.64770612 15.3192154,5.56632314 15.2197473,5.56632314 L6.53889628,5.56632314 C6.43942819,5.56632314 6.35804521,5.64770612 6.35804521,5.7471742 L6.35804521,6.83228059 C6.35804521,6.93174867 6.43942819,7.01313165 6.53889628,7.01313165 L15.2197473,7.01313165 C15.3192154,7.01313165 15.4005984,6.93174867 15.4005984,6.83228059 Z M6.53889628,8.82164229 C6.43942819,8.82164229 6.35804521,8.90302527 6.35804521,9.00249335 L6.35804521,10.0875997 C6.35804521,10.1870678 6.43942819,10.2684508 6.53889628,10.2684508 L10.6984707,10.2684508 C10.7979388,10.2684508 10.8793218,10.1870678 10.8793218,10.0875997 L10.8793218,9.00249335 C10.8793218,8.90302527 10.7979388,8.82164229 10.6984707,8.82164229 L6.53889628,8.82164229 Z M10.6984707,19.1753657 L4.54953457,19.1753657 L4.54953457,3.26047207 L17.209109,3.26047207 L17.209109,9.95196144 C17.209109,10.0514295 17.290492,10.1328125 17.3899601,10.1328125 L18.6559176,10.1328125 C18.7553856,10.1328125 18.8367686,10.0514295 18.8367686,9.95196144 L18.8367686,2.35621676 C18.8367686,1.95608378 18.5134973,1.6328125 18.1133644,1.6328125 L3.64527926,1.6328125 C3.24514628,1.6328125 2.921875,1.95608378 2.921875,2.35621676 L2.921875,20.079621 C2.921875,20.479754 3.24514628,20.8030253 3.64527926,20.8030253 L10.6984707,20.8030253 C10.7979388,20.8030253 10.8793218,20.7216423 10.8793218,20.6221742 L10.8793218,19.3562168 C10.8793218,19.2567487 10.7979388,19.1753657 10.6984707,19.1753657 Z M19.7998005,11.923238 L15.459375,10.4153923 C15.4390293,10.4086104 15.4209441,10.4063497 15.4005984,10.4063497 C15.3802527,10.4063497 15.3599069,10.4086104 15.3418218,10.4153923 L11.0013963,11.923238 C10.9290559,11.9481051 10.8793218,12.0159242 10.8793218,12.0927859 L10.8793218,17.7692487 C10.8793218,17.8257646 10.9041888,17.8777593 10.9494016,17.9116689 L15.2898271,21.3071476 C15.3214761,21.3320146 15.3621676,21.3455785 15.4005984,21.3455785 C15.4390293,21.3455785 15.4797207,21.3320146 15.5113697,21.3071476 L19.8517952,17.9116689 C19.8947473,17.8777593 19.921875,17.8257646 19.921875,17.7692487 L19.921875,12.0927859 C19.921875,12.0159242 19.872141,11.9481051 19.7998005,11.923238 Z M18.5202793,17.1792221 L15.4005984,19.6184508 L12.2809176,17.1792221 L12.2809176,12.9586104 L15.4005984,11.873504 L18.5202793,12.9586104 L18.5202793,17.1792221 Z" id="Shape"></path>
</svg>