<svg width="22px" height="24px" viewBox="0 0 22 24" version="1.1" xmlns="http://www.w3.org/2000/svg" xmlns:xlink="http://www.w3.org/1999/xlink">
    <defs></defs>
    <rect id="Rectangle-path" opacity="0" x="0" y="0.75" width="22" height="22"></rect>
    <path d="M18.5,1.5 L3.5,1.5 C3.08515625,1.5 2.75,1.83515625 2.75,2.25 L2.75,21.75 C2.75,22.1648438 3.08515625,22.5 3.5,22.5 L18.5,22.5 C18.9148437,22.5 19.25,22.1648438 19.25,21.75 L19.25,2.25 C19.25,1.83515625 18.9148437,1.5 18.5,1.5 Z M17.5625,20.8125 L4.4375,20.8125 L4.4375,16.1015625 L6.73203125,16.1015625 C7.00390625,16.8703125 7.48203125,17.5617187 8.1171875,18.0867188 C8.92578125,18.7546875 9.95,19.125 11,19.125 C12.05,19.125 13.0742188,18.7570312 13.8828125,18.0867188 C14.5179688,17.5617188 14.9960938,16.8703125 15.2679687,16.1015625 L17.5625,16.1015625 L17.5625,14.625 L14.084375,14.625 L13.9625,15.2039063 C13.68125,16.6054688 12.434375,17.625 11,17.625 C9.565625,17.625 8.31875,16.6054688 8.03515625,15.2039063 L7.91328125,14.625 L4.4375,14.625 L4.4375,3.1875 L17.5625,3.1875 L17.5625,20.8125 Z M6.5,7.9921875 L15.5,7.9921875 C15.603125,7.9921875 15.6875,7.9078125 15.6875,7.8046875 L15.6875,6.6796875 C15.6875,6.5765625 15.603125,6.4921875 15.5,6.4921875 L6.5,6.4921875 C6.396875,6.4921875 6.3125,6.5765625 6.3125,6.6796875 L6.3125,7.8046875 C6.3125,7.9078125 6.396875,7.9921875 6.5,7.9921875 Z M6.5,11.7421875 L15.5,11.7421875 C15.603125,11.7421875 15.6875,11.6578125 15.6875,11.5546875 L15.6875,10.4296875 C15.6875,10.3265625 15.603125,10.2421875 15.5,10.2421875 L6.5,10.2421875 C6.396875,10.2421875 6.3125,10.3265625 6.3125,10.4296875 L6.3125,11.5546875 C6.3125,11.6578125 6.396875,11.7421875 6.5,11.7421875 Z" id="Shape"></path>
</svg>