<svg width="22px" height="24px" viewBox="0 0 22 24" version="1.1" xmlns="http://www.w3.org/2000/svg" xmlns:xlink="http://www.w3.org/1999/xlink">
    <defs></defs>
    <rect id="Rectangle-path" opacity="0" x="0" y="0.875" width="22" height="22"></rect>
    <path d="M19.078125,17.015625 L4.296875,17.015625 L4.296875,3.609375 C4.296875,3.51484375 4.21953125,3.4375 4.125,3.4375 L2.921875,3.4375 C2.82734375,3.4375 2.75,3.51484375 2.75,3.609375 L2.75,18.390625 C2.75,18.4851562 2.82734375,18.5625 2.921875,18.5625 L19.078125,18.5625 C19.1726562,18.5625 19.25,18.4851562 19.25,18.390625 L19.25,17.1875 C19.25,17.0929688 19.1726562,17.015625 19.078125,17.015625 Z M6.1875,15.296875 L7.390625,15.296875 C7.48515625,15.296875 7.5625,15.2195313 7.5625,15.125 L7.5625,12.03125 C7.5625,11.9367188 7.48515625,11.859375 7.390625,11.859375 L6.1875,11.859375 C6.09296875,11.859375 6.015625,11.9367188 6.015625,12.03125 L6.015625,15.125 C6.015625,15.2195313 6.09296875,15.296875 6.1875,15.296875 Z M9.453125,15.296875 L10.65625,15.296875 C10.7507812,15.296875 10.828125,15.2195312 10.828125,15.125 L10.828125,8.25 C10.828125,8.15546875 10.7507812,8.078125 10.65625,8.078125 L9.453125,8.078125 C9.35859375,8.078125 9.28125,8.15546875 9.28125,8.25 L9.28125,15.125 C9.28125,15.2195312 9.35859375,15.296875 9.453125,15.296875 Z M12.71875,15.296875 L13.921875,15.296875 C14.0164063,15.296875 14.09375,15.2195313 14.09375,15.125 L14.09375,9.92578125 C14.09375,9.83125 14.0164063,9.75390625 13.921875,9.75390625 L12.71875,9.75390625 C12.6242188,9.75390625 12.546875,9.83125 12.546875,9.92578125 L12.546875,15.125 C12.546875,15.2195313 12.6242188,15.296875 12.71875,15.296875 Z M15.984375,15.296875 L17.1875,15.296875 C17.2820312,15.296875 17.359375,15.2195313 17.359375,15.125 L17.359375,6.53125 C17.359375,6.43671875 17.2820312,6.359375 17.1875,6.359375 L15.984375,6.359375 C15.8898438,6.359375 15.8125,6.43671875 15.8125,6.53125 L15.8125,15.125 C15.8125,15.2195313 15.8898438,15.296875 15.984375,15.296875 Z" id="Shape"></path>
</svg>