<svg class="icon" viewBox="0 0 1024 1024" xmlns="http://www.w3.org/2000/svg" width="200" height="200"><defs><style/></defs><path d="M181.402 193.536v545.792h751.923c21.811 0 39.475 17.92 39.475 39.936S955.136 819.2 933.325 819.2H141.824a39.731 39.731 0 0 1-39.424-39.936V193.536c0-22.016 17.664-39.936 39.475-39.936s39.527 17.92 39.527 39.936zm100.198 296.5c0-30.26 17.203-54.836 38.4-54.836s38.4 24.576 38.4 54.835v146.33c0 30.259-17.203 54.835-38.4 54.835s-38.4-24.576-38.4-54.835V489.984zm170.65-161.178c0-26.112 17.203-47.258 38.4-47.258 21.248 0 38.4 21.146 38.4 47.258v315.084c0 26.112-17.152 47.258-38.4 47.258-21.197 0-38.4-21.146-38.4-47.258V328.858zm170.7 52.838c0-27.034 17.152-48.896 38.4-48.896 21.197 0 38.4 21.862 38.4 48.896v260.608c0 27.034-17.203 48.896-38.4 48.896-21.248 0-38.4-21.862-38.4-48.896V381.696zM793.6 276.48c0-25.446 17.203-46.08 38.4-46.08s38.4 20.634 38.4 46.08v368.64c0 25.446-17.203 46.08-38.4 46.08s-38.4-20.634-38.4-46.08V276.48z"/></svg>