<?xml version="1.0" standalone="no"?><!DOCTYPE svg PUBLIC "-//W3C//DTD SVG 1.1//EN" "http://www.w3.org/Graphics/SVG/1.1/DTD/svg11.dtd"><svg t="1541733805968" class="icon" style="" viewBox="0 0 1024 1024" version="1.1" xmlns="http://www.w3.org/2000/svg" p-id="1332" xmlns:xlink="http://www.w3.org/1999/xlink" width="16" height="16"><defs><style type="text/css"></style></defs><path d="M595.90581958 719.66323724L776.71919479 538.84986206a12.68329146 12.68329146 0 0 0 2.66906378-3.96798036c0.0209501-0.04609064 0.05028054-0.08799134 0.07123118-0.13827191a12.62463109 12.62463109 0 0 0 0.6326981-2.04055563c0.02933045-0.12570163 0.08380092-0.24302292 0.10894143-0.37291498 0.16760236-0.83801075 0.25559319-1.68859175 0.25559321-2.53498234L780.45672249 504.20650056a12.73357255 12.73357255 0 0 0-5.29203748-10.3159115L595.90581958 314.6233438a12.77966266 12.77966266 0 0 0-18.08008049 0l-18.0842704 18.0800805a12.78804301 12.78804301 0 0 0 0 18.08008049l140.63914267 140.63495276L256.26427978 491.41845755a12.78385311 12.78385311 0 0 0-12.78804301 12.78804301l0 25.57189611a12.78385311 12.78385311 0 0 0 12.78804301 12.78385309L700.67810528 542.56224976l-140.93663658 140.93663659a12.78804301 12.78804301 0 0 0 0 18.08008048l18.0842704 18.08008051a12.77966266 12.77966266 0 0 0 18.08008048 0.00418991z" p-id="1333"></path></svg>