<svg width="22px" height="23px" viewBox="0 0 22 23" version="1.1" xmlns="http://www.w3.org/2000/svg" xmlns:xlink="http://www.w3.org/1999/xlink">
    <defs></defs>
    <rect id="Rectangle-path" opacity="0" x="0" y="0" width="22" height="22"></rect>
    <path d="M9.96875,3.09375 L3.4375,3.09375 C3.2484375,3.09375 3.09375,3.2484375 3.09375,3.4375 L3.09375,9.96875 C3.09375,10.1578125 3.2484375,10.3125 3.4375,10.3125 L9.96875,10.3125 C10.1578125,10.3125 10.3125,10.1578125 10.3125,9.96875 L10.3125,3.4375 C10.3125,3.2484375 10.1578125,3.09375 9.96875,3.09375 Z M8.8515625,8.8515625 L4.5546875,8.8515625 L4.5546875,4.5546875 L8.8515625,4.5546875 L8.8515625,8.8515625 Z M18.5625,3.09375 L12.03125,3.09375 C11.8421875,3.09375 11.6875,3.2484375 11.6875,3.4375 L11.6875,9.96875 C11.6875,10.1578125 11.8421875,10.3125 12.03125,10.3125 L18.5625,10.3125 C18.7515625,10.3125 18.90625,10.1578125 18.90625,9.96875 L18.90625,3.4375 C18.90625,3.2484375 18.7515625,3.09375 18.5625,3.09375 Z M17.4453125,8.8515625 L13.1484375,8.8515625 L13.1484375,4.5546875 L17.4453125,4.5546875 L17.4453125,8.8515625 Z M9.96875,11.6875 L3.4375,11.6875 C3.2484375,11.6875 3.09375,11.8421875 3.09375,12.03125 L3.09375,18.5625 C3.09375,18.7515625 3.2484375,18.90625 3.4375,18.90625 L9.96875,18.90625 C10.1578125,18.90625 10.3125,18.7515625 10.3125,18.5625 L10.3125,12.03125 C10.3125,11.8421875 10.1578125,11.6875 9.96875,11.6875 Z M8.8515625,17.4453125 L4.5546875,17.4453125 L4.5546875,13.1484375 L8.8515625,13.1484375 L8.8515625,17.4453125 Z M18.5625,11.6875 L12.03125,11.6875 C11.8421875,11.6875 11.6875,11.8421875 11.6875,12.03125 L11.6875,18.5625 C11.6875,18.7515625 11.8421875,18.90625 12.03125,18.90625 L18.5625,18.90625 C18.7515625,18.90625 18.90625,18.7515625 18.90625,18.5625 L18.90625,12.03125 C18.90625,11.8421875 18.7515625,11.6875 18.5625,11.6875 Z M17.4453125,17.4453125 L13.1484375,17.4453125 L13.1484375,13.1484375 L17.4453125,13.1484375 L17.4453125,17.4453125 Z" id="Shape"></path>
</svg>