<svg width="22px" height="23px" viewBox="0 0 22 23" version="1.1" xmlns="http://www.w3.org/2000/svg" xmlns:xlink="http://www.w3.org/1999/xlink">
    <defs></defs>
    <rect id="Rectangle-path" opacity="0" x="0" y="0" width="22" height="22"></rect>
    <path d="M19.28,2 L2.72,2 C2.32175,2 2,2.32175 2,2.72 L2,19.28 C2,19.67825 2.32175,20 2.72,20 L19.28,20 C19.67825,20 20,19.67825 20,19.28 L20,2.72 C20,2.32175 19.67825,2 19.28,2 Z M3.62,3.62 L6.68,3.62 L6.68,18.38 L3.62,18.38 L3.62,3.62 Z M18.38,18.38 L8.12,18.38 L8.12,8.12 L18.38,8.12 L18.38,18.38 Z M8.12,6.68 L8.12,3.62 L18.38,3.62 L18.38,6.68 L8.12,6.68 Z" id="Shape"></path>
</svg>